<svg xmlns="http://www.w3.org/2000/svg" width="15" height="15" fill="none" viewBox="0 0 15 15">
    <path fill="#fff" d="M6.786 0H.357C.16 0 0 .16 0 .357V5c0 .197.16.357.357.357h6.429c.197 0 .357-.16.357-.357V.357C7.143.16 6.983 0 6.786 0zM6.786 6.072H.357c-.197 0-.357.16-.357.357v8.214c0 .197.16.357.357.357h6.429c.197 0 .357-.16.357-.357V6.429c0-.198-.16-.357-.357-.357zM14.643 9.643H8.214c-.197 0-.357.16-.357.357v4.643c0 .197.16.357.357.357h6.429c.197 0 .357-.16.357-.357V10c0-.197-.16-.357-.357-.357zM14.643 0H8.214c-.197 0-.357.16-.357.357v8.214c0 .198.16.358.357.358h6.429c.197 0 .357-.16.357-.358V.357C15 .16 14.84 0 14.643 0z"/>
</svg>
