<svg xmlns="http://www.w3.org/2000/svg" width="23" height="22" fill="none" viewBox="0 0 23 22">
    <path stroke="#fff" d="M1.024.5h9.428c.014 0 .024.01.024.024v6.81c0 .012-.01.023-.024.023H1.024c-.013 0-.024-.01-.024-.024V.523C1 .512 1.01.5 1.024.5zM1.024 9.405h9.428c.014 0 .024.01.024.024v12.047c0 .013-.01.024-.024.024H1.024c-.013 0-.024-.01-.024-.024V9.43c0-.014.01-.024.024-.024zM12.548 14.643h9.428c.013 0 .024.01.024.023v6.81c0 .013-.01.024-.024.024h-9.428c-.013 0-.024-.011-.024-.024v-6.81c0-.013.01-.023.024-.023zM12.548.5h9.428c.013 0 .024.01.024.024V12.57c0 .014-.01.024-.024.024h-9.428c-.013 0-.024-.01-.024-.024V.524c0-.013.01-.024.024-.024z"/>
</svg>
