<svg xmlns="http://www.w3.org/2000/svg" width="16" height="15" fill="none" viewBox="0 0 16 15">
    <path fill="#fff" d="M8.016 15c1.806 0 3.552-.654 4.913-1.842L7.637 7.866c-.05-.05-.09-.109-.117-.174-.027-.065-.04-.135-.04-.206V0C5.537.138 3.725 1.023 2.424 2.47 1.124 3.919.435 5.815.505 7.76c.07 1.944.892 3.786 2.293 5.137C4.198 14.247 6.07 15 8.016 15z"/>
    <path fill="#fff" d="M8.552 0v6.95h6.95c-.13-1.8-.905-3.493-2.181-4.769C12.045.905 10.352.131 8.552 0zM9.312 8.023l4.376 4.376c1.063-1.223 1.7-2.76 1.814-4.376h-6.19z"/>
</svg>
