<svg xmlns="http://www.w3.org/2000/svg" width="23" height="22" fill="none" viewBox="0 0 23 22">
    <path stroke="#fff" d="M11.022 21.5h0c2.35 0 4.625-.79 6.464-2.236l-7.372-7.373.908 9.609zm0 0c-2.725.002-5.344-1.054-7.305-2.945-1.962-1.891-3.113-4.47-3.21-7.193-.098-2.723.866-5.377 2.687-7.404C4.896 2.065 7.221.858 9.735.55m1.287 20.95L9.735.55m0 0v10.43c0 .17.034.337.099.493.065.156.16.298.28.418L9.734.55zM21.45 9.693h-9.14V.55c2.318.289 4.48 1.342 6.14 3.001 1.66 1.66 2.713 3.822 3 6.14zM21.452 12.267c-.231 1.888-.973 3.678-2.146 5.176l-5.176-5.176h7.322z"/>
</svg>
