<svg xmlns="http://www.w3.org/2000/svg" width="18" height="22" fill="none" viewBox="0 0 18 22">
    <path stroke="#fff" d="M15.572.502h.012L15.596.5c.12-.006.242.013.356.056.114.042.217.108.305.192.088.083.158.184.206.296.047.112.072.232.072.353v18.998l-1.044-.972-.007-.006-.007-.006c-.244-.211-.556-.327-.88-.327-.322 0-.634.116-.879.327h0l-.006.006-2.134 1.91-2.104-1.908-.01-.01-.01-.008c-.246-.199-.552-.307-.868-.307-.316 0-.622.108-.867.307l-.01.009-.011.009-2.104 1.907-2.133-1.91h0l-.007-.005c-.244-.211-.556-.327-.88-.327-.322 0-.634.116-.879.327l-.007.006-.006.006-1.044.972V1.4h0c0-.122.024-.242.072-.354C.757.933.827.832.915.749c.088-.084.192-.15.305-.192.114-.043.235-.062.357-.056h13.995zM3.86 10.286l.342-.343-.342.343c.185.185.436.289.698.289h8.058c.262 0 .514-.104.699-.29l-.354-.353.354.354c.185-.186.289-.437.289-.699 0-.262-.104-.513-.29-.698l-.353.354.354-.354c-.185-.185-.437-.29-.699-.29H4.557c-.262 0-.513.105-.698.29l.342.342-.342-.342c-.185.185-.29.436-.29.698 0 .262.105.513.29.699zm0 4.224l.342-.342-.342.342c.185.185.436.289.698.289h8.058c.262 0 .513-.104.699-.29l-.354-.353.354.354c.185-.185.289-.437.289-.698 0-.262-.104-.513-.29-.699-.184-.185-.436-.289-.698-.289H4.557c-.262 0-.513.104-.698.29-.185.184-.29.436-.29.697 0 .262.105.514.29.699zM8.716 4.376h-4.16c-.261 0-.512.104-.697.289-.185.185-.29.436-.29.698 0 .262.105.513.29.698.185.185.436.29.698.29h4.16c.261 0 .512-.105.697-.29.186-.185.29-.436.29-.698 0-.262-.104-.513-.29-.698-.185-.185-.436-.29-.698-.29z"/>
</svg>
