<svg xmlns="http://www.w3.org/2000/svg" width="13" height="15" fill="none" viewBox="0 0 13 15">
    <path fill="#fff" d="M11.35.001H1.822c-.13-.006-.258.014-.379.06-.12.045-.23.114-.324.203C1.027.353.953.46.902.579.852.697.826.825.826.954V14.69l1.285-1.197c.104-.09.238-.14.376-.14.139 0 .272.05.377.14L4.548 15l1.661-1.507c.107-.086.24-.133.377-.133s.27.047.377.133L8.624 15l1.684-1.507c.105-.09.238-.14.377-.14.138 0 .272.05.376.14l1.285 1.197V.954c0-.13-.026-.257-.076-.375-.05-.119-.125-.226-.218-.315-.093-.09-.204-.158-.325-.204-.12-.045-.249-.065-.378-.059zM3.838 3.324h2.836c.088 0 .172.035.235.098.062.062.097.146.097.235 0 .088-.035.172-.097.235-.063.062-.147.097-.235.097H3.839c-.088 0-.173-.035-.235-.097-.063-.063-.098-.147-.098-.235 0-.089.035-.173.098-.235.062-.063.147-.098.235-.098zM9.333 9.75H3.84c-.088 0-.173-.035-.235-.097-.063-.062-.098-.147-.098-.235s.035-.173.098-.235c.062-.062.147-.097.235-.097h5.494c.088 0 .173.035.235.097.063.062.098.147.098.235s-.035.173-.098.235c-.062.062-.147.097-.235.097zm0-2.88H3.84c-.088 0-.173-.035-.235-.097-.063-.063-.098-.147-.098-.235s.035-.173.098-.235c.062-.063.147-.098.235-.098h5.494c.088 0 .173.035.235.098.063.062.098.147.098.235s-.035.172-.098.235c-.062.062-.147.097-.235.097z"/>
</svg>
