<svg xmlns="http://www.w3.org/2000/svg" width="24" height="16" fill="none" viewBox="0 0 24 16">
    <path fill="#373737" d="M21.75 0H2.25C1.012 0 0 .982 0 2.182v11.636C0 15.018 1.012 16 2.25 16h19.5c1.238 0 2.25-.982 2.25-2.182V2.182C24 .982 22.988 0 21.75 0zM7.5 12c0 .218-.15.364-.375.364h-3.75C3.15 12.364 3 12.218 3 12V9.818c0-.218.15-.363.375-.363h3.75c.225 0 .375.145.375.363V12zM21 12c0 .218-.15.364-.375.364h-9.75c-.225 0-.375-.146-.375-.364v-1.454c0-.219.15-.364.375-.364h9.75c.225 0 .375.145.375.364V12zm.75-5.455H2.25c-.413 0-.75-.327-.75-.727 0-.4.337-.727.75-.727h19.5c.413 0 .75.327.75.727 0 .4-.337.727-.75.727z"/>
</svg>
