<svg xmlns="http://www.w3.org/2000/svg" width="24" height="16" fill="none" viewBox="0 0 24 16">
    <path fill="#373737" fill-rule="evenodd" d="M2 3c0-.552.448-1 1-1h18c.552 0 1 .448 1 1v10c0 .552-.448 1-1 1H3c-.552 0-1-.448-1-1V3zM0 13V2C0 .895.895 0 2 0h20c1.105 0 2 .895 2 2v12c0 1.105-.895 2-2 2H2c-1.105 0-2-.895-2-2v-1z" clip-rule="evenodd"/>
    <path fill="#373737" d="M14.71 9.745c0-1.551-1.342-1.958-2.563-2.244v-1.87c.55.066 1.122.253 1.683.572l.55-1.353c-.605-.385-1.408-.605-2.233-.671V2.98h-1.1v1.221C9.309 4.399 8.462 5.4 8.462 6.566c0 1.573 1.364 1.98 2.585 2.277v1.837c-.792-.077-1.584-.374-2.134-.781l-.605 1.342c.605.473 1.65.814 2.739.88v1.199h1.1v-1.232c1.727-.209 2.563-1.199 2.563-2.343zm-4.477-3.267c0-.363.231-.682.814-.814v1.562c-.484-.154-.814-.363-.814-.748zm1.914 4.158V9.118c.473.165.792.374.792.759 0 .352-.242.638-.792.759z"/>
</svg>
