<svg xmlns="http://www.w3.org/2000/svg" width="13" height="16" fill="none" viewBox="0 0 13 16">
    <path fill="#000" d="M12.842 4.253c.002-.059-.008-.117-.03-.172-.021-.054-.054-.103-.096-.144L8.589.105C8.514.04 8.417.001 8.316 0h-5.79C1.856 0 1.214.266.74.74S0 1.856 0 2.526v10.948c0 .67.266 1.312.74 1.786s1.116.74 1.786.74h7.79c.67 0 1.312-.266 1.786-.74s.74-1.116.74-1.786V4.253zm-4.21-2.969L11.516 4H8.632V1.284zm1.684 13.853h-7.79c-.446 0-.875-.178-1.19-.494-.316-.315-.494-.744-.494-1.19V2.526c0-.446.178-.875.493-1.19.316-.316.745-.494 1.191-.494H7.79v3.369c0 .167.067.328.185.446.119.119.28.185.447.185H12v8.632c0 .446-.177.875-.493 1.19-.316.316-.745.494-1.191.494v-.021z"/>
    <path fill="#000" d="M10.105 8.421H2.526c-.112 0-.219.045-.298.124-.079.079-.123.186-.123.297 0 .112.044.22.123.298.08.08.186.123.298.123h7.579c.112 0 .219-.044.298-.123.079-.079.123-.186.123-.298 0-.111-.044-.218-.123-.297-.08-.08-.186-.124-.298-.124zM2.526 6.105h4.421c.112 0 .219-.044.298-.123.079-.079.123-.186.123-.298 0-.111-.044-.219-.123-.297-.08-.08-.186-.124-.298-.124H2.526c-.112 0-.219.045-.298.124-.079.078-.123.186-.123.297 0 .112.044.219.123.298.08.079.186.123.298.123zM10.105 11.579H2.526c-.112 0-.219.044-.298.123-.079.079-.123.186-.123.298 0 .111.044.218.123.297.08.08.186.124.298.124h7.579c.112 0 .219-.045.298-.124.079-.079.123-.186.123-.297 0-.112-.044-.22-.123-.298-.08-.079-.186-.123-.298-.123z"/>
</svg>
