<svg xmlns="http://www.w3.org/2000/svg" width="17" height="16" fill="none" viewBox="0 0 17 16">
    <path fill="#000" d="M9.143 14.857H1.714c-.151 0-.297-.06-.404-.167-.107-.107-.167-.253-.167-.404V1.714c0-.151.06-.297.167-.404.107-.107.253-.167.404-.167h7.429c.151 0 .297-.06.404-.168.107-.107.167-.252.167-.404 0-.151-.06-.296-.167-.404C9.44.06 9.294 0 9.143 0H1.714C1.26 0 .824.18.502.502.181.824 0 1.26 0 1.714v12.572c0 .454.18.89.502 1.212.322.321.758.502 1.212.502h7.429c.151 0 .297-.06.404-.167.107-.107.167-.253.167-.404 0-.152-.06-.297-.167-.405-.107-.107-.253-.167-.404-.167z"/>
    <path fill="#000" d="M15.834 7.594l-4-4c-.109-.094-.25-.143-.393-.137-.144.006-.28.065-.383.167-.101.102-.16.238-.166.382-.006.144.043.284.137.394l3.022 3.028h-9.48c-.151 0-.296.06-.404.168C4.06 7.703 4 7.848 4 8c0 .151.06.297.167.404.108.107.253.167.404.167h9.486l-3.023 3.023c-.06.051-.108.114-.142.185-.035.071-.054.148-.057.227-.003.079.01.157.039.23.029.074.072.14.128.196.056.056.122.1.195.128.074.029.152.042.231.039.079-.003.156-.022.227-.057.07-.034.134-.082.185-.142l4-4c.106-.108.164-.253.163-.404 0-.151-.062-.296-.169-.402z"/>
</svg>
