<svg xmlns="http://www.w3.org/2000/svg" width="18" height="18" fill="none" viewBox="0 0 18 18">
    <path fill="#000" stroke="#000" stroke-width=".3" d="M9 1C4.581 1 1 4.581 1 9c0 4.419 3.581 8 8 8 4.419 0 8-3.581 8-8 0-4.419-3.602-8-8-8zm0 15.225c-3.98 0-7.225-3.246-7.225-7.225C1.775 5.02 5 1.775 9 1.775c4 0 7.225 3.246 7.225 7.225 0 3.98-3.246 7.225-7.225 7.225zm.335-3.35c0 .23-.188.418-.419.418-.23 0-.419-.188-.419-.419 0-.23.189-.418.42-.418.23 0 .418.188.418.418zm1.738-5.697c0 .733-.418 1.403-1.193 1.864-.566.335-.545.733-.545.754V10.8c0 .21-.167.377-.377.377s-.398-.168-.398-.377v-.942c-.02-.335.147-.985.9-1.445.378-.23.817-.629.817-1.215 0-.712-.586-1.298-1.298-1.298-.712 0-1.298.586-1.298 1.298 0 .21-.168.377-.377.377-.21 0-.377-.168-.377-.377 0-1.152.921-2.073 2.073-2.073s2.073.9 2.073 2.052z"/>
</svg>
