<svg xmlns="http://www.w3.org/2000/svg" width="12" height="16" fill="none" viewBox="0 0 12 16">
    <path fill="#000" d="M8.816 4.571H3.32V3.156c0-1.088.87-2.013 2.013-2.013h.708c.816 0 1.524.49 1.85 1.197.109.272.436.381.708.272.272-.109.38-.435.272-.707C8.38.762 7.293 0 6.04 0h-.708C3.646 0 2.231 1.36 2.231 3.102v1.47C.98 4.788 0 5.931 0 7.237v6.04C0 14.804 1.197 16 2.721 16h6.04c1.525 0 2.722-1.197 2.722-2.721V7.293c.054-1.524-1.197-2.722-2.667-2.722zm1.633 8.762c0 .925-.707 1.633-1.633 1.633H2.721c-.925 0-1.633-.707-1.633-1.633v-6.04c0-.926.708-1.633 1.633-1.633h6.04c.926 0 1.634.707 1.634 1.633v6.04h.054zM6.585 9.415c0 .218-.109.435-.272.599v1.251c0 .327-.218.544-.544.544-.327 0-.545-.217-.545-.544v-1.251c-.163-.164-.272-.381-.272-.599 0-.435.381-.816.817-.816.435 0 .816.38.816.816z"/>
</svg>
