<svg xmlns="http://www.w3.org/2000/svg" width="20" height="18" fill="none" viewBox="0 0 20 18">
    <path stroke="#111" stroke-linecap="round" stroke-linejoin="round" d="M11.631 16.108c-.157.271-.383.496-.655.653-.272.157-.58.239-.894.239-.313 0-.622-.082-.894-.239-.271-.157-.497-.382-.655-.653M18.91 14.43H1c.712 0 1.396-.282 1.9-.786.503-.504.786-1.187.786-1.9V7.268c0-1.662.66-3.257 1.836-4.432C6.698 1.66 8.292 1 9.954 1c1.663 0 3.257.66 4.432 1.836 1.176 1.175 1.836 2.77 1.836 4.432v4.477c0 .713.283 1.396.787 1.9s1.187.787 1.9.787z"/>
</svg>
