<svg xmlns="http://www.w3.org/2000/svg" width="16" height="18" fill="none" viewBox="0 0 16 18">
    <path fill="#000" stroke="#000" stroke-width=".2" d="M10.612 14.876C10.472 16.072 9.455 17 8.222 17c-1.234 0-2.251-.928-2.391-2.124H2.56C1.698 14.876 1 14.18 1 13.32s.698-1.558 1.558-1.558c.077 0 .141-.064.141-.142V8.221c0-2.422 1.572-4.53 3.823-5.256V2.7c0-.938.762-1.699 1.7-1.699s1.698.76 1.698 1.7v.265c2.252.727 3.823 2.834 3.823 5.256v3.398c0 .08.063.142.141.142.86 0 1.559.698 1.559 1.558 0 .86-.7 1.557-1.56 1.557h-3.271zm-.859 0H6.69c.134.725.769 1.274 1.532 1.274.764 0 1.399-.549 1.532-1.274zm-2.7-11.18c-2.048.526-3.504 2.38-3.504 4.525v3.398c0 .547-.444.992-.99.992-.392 0-.71.317-.71.708 0 .39.318.707.711.707h11.322c.392 0 .71-.317.71-.707 0-.39-.318-.708-.708-.708-.547 0-.99-.443-.99-.992V8.221c0-2.144-1.457-3.998-3.504-4.525l-.32-.082v-.915c0-.47-.379-.85-.849-.85-.468 0-.85.382-.85.85v.915l-.318.082z"/>
</svg>
