<svg xmlns="http://www.w3.org/2000/svg" width="18" height="18" fill="none" viewBox="0 0 18 18">
    <path stroke="#111" stroke-linecap="round" stroke-linejoin="round" d="M9 11.182c1.205 0 2.182-.977 2.182-2.182S10.205 6.818 9 6.818 6.818 7.795 6.818 9 7.795 11.182 9 11.182z"/>
    <path stroke="#111" stroke-linecap="round" stroke-linejoin="round" d="M14.382 11.182c-.097.22-.126.463-.083.698.043.236.155.454.323.625l.043.044c.136.135.243.296.316.472.073.177.111.366.111.557 0 .191-.038.38-.11.557-.074.177-.181.337-.316.472-.136.136-.296.243-.473.316-.176.073-.365.11-.557.11-.19 0-.38-.037-.557-.11-.176-.073-.337-.18-.472-.316l-.043-.043c-.172-.168-.39-.28-.625-.323-.236-.043-.48-.014-.699.083-.215.092-.399.245-.528.44s-.198.424-.2.658v.123c0 .386-.152.756-.425 1.029-.273.273-.643.426-1.029.426-.386 0-.756-.153-1.028-.426-.273-.273-.426-.643-.426-1.029v-.065c-.006-.24-.084-.474-.224-.67-.14-.196-.336-.345-.562-.428-.22-.097-.462-.126-.698-.083-.236.043-.454.155-.625.323l-.044.043c-.135.136-.296.243-.472.316-.177.073-.366.111-.557.111-.191 0-.38-.038-.557-.11-.177-.074-.337-.181-.472-.316-.136-.136-.243-.296-.316-.473-.073-.176-.11-.365-.11-.557 0-.19.037-.38.11-.557.073-.176.18-.337.316-.472l.043-.043c.168-.172.28-.39.323-.625.043-.236.014-.48-.083-.699-.092-.215-.245-.399-.44-.528s-.424-.198-.658-.2h-.123c-.386 0-.756-.152-1.029-.425C1.153 9.814 1 9.444 1 9.058c0-.386.153-.756.426-1.028.273-.273.643-.426 1.029-.426h.065c.24-.006.474-.084.67-.224.196-.14.345-.336.428-.562.097-.22.126-.462.083-.698-.043-.236-.155-.454-.323-.625l-.043-.044c-.136-.135-.243-.296-.316-.472-.073-.177-.111-.366-.111-.557 0-.191.038-.38.11-.557.074-.177.181-.337.317-.472.135-.136.295-.243.472-.316.176-.073.365-.11.557-.11.19 0 .38.037.557.11.176.073.337.18.472.316l.043.043c.172.168.39.28.625.323.236.043.48.014.699-.083h.058c.215-.092.399-.245.528-.44.13-.195.199-.424.2-.658v-.123c0-.386.153-.756.425-1.029C8.244 1.153 8.614 1 9 1c.386 0 .756.153 1.028.426.273.273.426.643.426 1.029v.065c.002.234.07.463.2.658s.313.348.528.44c.22.097.463.126.698.083.236-.043.454-.155.625-.323l.044-.043c.135-.136.296-.243.472-.316.177-.073.366-.111.557-.111.191 0 .38.038.557.11.177.074.337.181.472.317.136.135.243.295.316.472.073.176.11.365.11.557 0 .19-.037.38-.11.557-.073.176-.18.337-.316.472l-.043.043c-.168.172-.28.39-.323.625-.043.236-.014.48.083.699v.058c.092.215.245.399.44.528.195.13.424.199.658.2h.123c.386 0 .756.153 1.029.425.273.273.426.643.426 1.029 0 .386-.153.756-.426 1.028-.273.273-.643.426-1.029.426h-.065c-.234.002-.463.07-.658.2s-.348.313-.44.528v0z"/>
</svg>
