<svg xmlns="http://www.w3.org/2000/svg" width="45" height="35" fill="none" viewBox="0 0 45 35">
    <path fill="#34C759" fill-rule="evenodd" d="M12.437 3.072C13.802 2.994 15.165 3 16.529 3h6.916c1.391 0 2.754-.006 4.118.072 1.24.07 2.448.221 3.65.558 2.531.707 4.742 2.185 6.34 4.28C39.14 9.99 40 12.54 40 15.156c0 2.62-.86 5.167-2.448 7.248-1.597 2.094-3.808 3.573-6.339 4.28-1.202.336-2.41.486-3.65.558-1.364.078-2.727.071-4.092.071h-6.916c-1.39 0-2.753.007-4.118-.071-1.24-.072-2.447-.222-3.65-.558-2.53-.707-4.74-2.186-6.338-4.28C.86 20.323 0 17.776 0 15.157 0 12.54.86 9.991 2.449 7.91c1.597-2.095 3.807-3.573 6.338-4.28 1.203-.337 2.41-.487 3.65-.558z" clip-rule="evenodd"/>
    <g filter="url(#filter0_dd)">
        <path fill="#fff" fill-rule="evenodd" d="M27.843 25.745c5.848 0 10.588-4.74 10.588-10.588 0-5.848-4.74-10.589-10.588-10.589-5.848 0-10.588 4.74-10.588 10.589 0 5.847 4.74 10.588 10.588 10.588z" clip-rule="evenodd"/>
    </g>
    <defs>
        <filter id="filter0_dd" width="33.725" height="33.725" x="10.98" y=".647" color-interpolation-filters="sRGB" filterUnits="userSpaceOnUse">
            <feFlood flood-opacity="0" result="BackgroundImageFix"/>
            <feColorMatrix in="SourceAlpha" values="0 0 0 0 0 0 0 0 0 0 0 0 0 0 0 0 0 0 127 0"/>
            <feOffset dy="2.353"/>
            <feGaussianBlur stdDeviation=".392"/>
            <feColorMatrix values="0 0 0 0 0 0 0 0 0 0 0 0 0 0 0 0 0 0 0.06 0"/>
            <feBlend in2="BackgroundImageFix" result="effect1_dropShadow"/>
            <feColorMatrix in="SourceAlpha" values="0 0 0 0 0 0 0 0 0 0 0 0 0 0 0 0 0 0 127 0"/>
            <feOffset dy="2.353"/>
            <feGaussianBlur stdDeviation="3.137"/>
            <feColorMatrix values="0 0 0 0 0 0 0 0 0 0 0 0 0 0 0 0 0 0 0.15 0"/>
            <feBlend in2="effect1_dropShadow" result="effect2_dropShadow"/>
            <feBlend in="SourceGraphic" in2="effect2_dropShadow" result="shape"/>
        </filter>
    </defs>
</svg>
