<svg xmlns="http://www.w3.org/2000/svg" width="16" height="18" fill="none" viewBox="0 0 16 18">
    <path fill="#000" stroke="#000" stroke-width=".3" d="M15.365 3.68c0-.044-.009-.087-.026-.128-.017-.04-.043-.077-.074-.107l-2.418-2.351c-.04-.04-.09-.067-.143-.082-.054-.015-.111-.016-.165-.003-.055.013-.105.04-.146.077-.042.038-.073.085-.09.138-.005.014-.488 1.393-1.863 1.321-.416-.027-.816-.167-1.16-.403-.343-.236-.616-.56-.791-.938-.025-.06-.068-.111-.122-.148-.054-.036-.118-.055-.183-.055h-.002c-.065 0-.128.02-.183.055-.054.036-.096.087-.122.147-.175.378-.448.703-.791.939-.344.236-.744.376-1.16.403-1.373.069-1.843-1.265-1.863-1.321-.018-.053-.05-.1-.09-.138-.042-.037-.092-.064-.146-.077-.055-.013-.111-.012-.165.003-.054.015-.103.043-.143.082L1.1 3.444c-.031.031-.056.068-.073.108-.018.04-.027.084-.027.128s.008.087.025.128c.016.04.041.078.072.109 1.11 1.11.977 2.618.316 5.19-.624 2.433.026 5.774 6.67 7.878.065.02.135.02.2 0 6.643-2.104 7.293-5.445 6.67-7.877-.661-2.573-.794-4.082.316-5.191.03-.031.055-.068.072-.109.016-.04.025-.084.024-.128zM14.31 9.273c.8 3.113-1.262 5.484-6.127 7.048-4.866-1.564-6.927-3.935-6.128-7.048.563-2.194.929-4.137-.263-5.576l1.856-1.805c.223.414.559.757.968.99.41.232.876.345 1.346.325.439-.022.867-.144 1.252-.357.385-.212.716-.51.969-.87.252.36.584.658.968.87.385.213.813.335 1.252.357.47.02.937-.092 1.346-.325.41-.232.745-.576.968-.99l1.856 1.805c-1.192 1.44-.826 3.382-.263 5.576zm-6.127-2.41c-.305 0-.599.11-.828.31-.229.202-.377.479-.416.78-.039.303.033.608.204.86.17.253.426.435.72.512-.006.02-.01.04-.012.061v2.091c0 .088.035.172.097.234.062.063.147.098.235.098.087 0 .172-.035.234-.098.062-.062.097-.146.097-.234v-2.09c-.002-.021-.006-.042-.012-.062.294-.077.55-.259.72-.511.17-.253.243-.558.204-.86-.04-.302-.187-.58-.416-.78-.229-.2-.523-.311-.827-.31zm0 1.845c-.117 0-.232-.034-.329-.1-.097-.064-.173-.156-.218-.264-.044-.108-.056-.227-.033-.342.022-.115.079-.22.161-.303.083-.082.188-.139.303-.162.115-.022.234-.01.342.034.108.045.2.12.265.218.065.097.1.212.1.328 0 .157-.063.307-.174.418-.11.11-.26.173-.417.173z"/>
</svg>
