<svg xmlns="http://www.w3.org/2000/svg" width="20" height="22" fill="none" viewBox="0 0 20 22">
    <mask id="86rosxcu9a" fill="#fff">
        <path fill-rule="evenodd" d="M14.798 5.056c0 2.792-2.264 5.056-5.056 5.056-2.792 0-5.056-2.264-5.056-5.056C4.686 2.264 6.95 0 9.742 0c2.792 0 5.056 2.264 5.056 5.056zm4.684 14.409c0 3.38-19.48 3.38-19.48 0 0-4.526 4.361-8.195 9.74-8.195 5.379 0 9.74 3.669 9.74 8.195z" clip-rule="evenodd"/>
    </mask>
    <path fill="#fff" d="M9.742 11.112c3.345 0 6.056-2.711 6.056-6.056h-2c0 2.24-1.816 4.056-4.056 4.056v2zM3.686 5.056c0 3.345 2.711 6.056 6.056 6.056v-2c-2.24 0-4.056-1.816-4.056-4.056h-2zM9.742-1C6.397-1 3.686 1.711 3.686 5.056h2C5.686 2.816 7.502 1 9.742 1v-2zm6.056 6.056C15.798 1.711 13.087-1 9.742-1v2c2.24 0 4.056 1.816 4.056 4.056h2zM-.997 19.465c0 .962.697 1.594 1.325 1.968.662.394 1.538.687 2.493.907 1.925.446 4.442.66 6.921.66 2.48 0 4.996-.214 6.921-.66.955-.22 1.831-.513 2.493-.907.629-.374 1.326-1.006 1.326-1.968h-2c0-.118.088-.01-.349.25-.403.24-1.049.475-1.92.677-1.727.4-4.08.608-6.47.608-2.391 0-4.744-.209-6.471-.608-.872-.202-1.518-.438-1.921-.678-.437-.26-.348-.367-.348-.25h-2zm10.74-9.195c-5.763 0-10.74 3.962-10.74 9.195h2c0-3.819 3.744-7.195 8.74-7.195v-2zm10.739 9.195c0-5.233-4.977-9.195-10.74-9.195v2c4.995 0 8.74 3.376 8.74 7.195h2z" mask="url(#86rosxcu9a)"/>
</svg>
